<?xml version="1.0" standalone="no"?>
<!DOCTYPE svg PUBLIC "-//W3C//DTD SVG 20010904//EN"
 "http://www.w3.org/TR/2001/REC-SVG-20010904/DTD/svg10.dtd">
<svg version="1.0" xmlns="http://www.w3.org/2000/svg"
 width="512.000000pt" height="512.000000pt" viewBox="0 0 512.000000 512.000000"
 preserveAspectRatio="xMidYMid meet">

<g transform="translate(0.000000,512.000000) scale(0.100000,-0.100000)"
fill="#000000" stroke="none">
<path d="M1320 4890 c-18 -18 -20 -33 -20 -158 0 -120 2 -141 18 -155 22 -19
40 -23 73 -14 39 10 49 45 49 178 0 114 -1 121 -25 144 -29 30 -68 32 -95 5z"/>
<path d="M2468 2612 c-2114 -2113 -2298 -2300 -2298 -2330 0 -19 8 -40 20 -52
50 -50 -92 -187 2374 2279 2113 2113 2299 2302 2299 2332 0 38 -32 69 -72 69
-21 0 -429 -403 -2323 -2298z"/>
<path d="M585 4495 c-41 -40 -33 -70 38 -142 71 -70 109 -81 147 -43 37 37 26
67 -48 142 -76 75 -99 82 -137 43z"/>
<path d="M2075 4508 c-31 -17 -105 -90 -121 -120 -24 -45 9 -98 60 -98 25 0
44 12 94 63 72 73 81 110 36 146 -30 24 -41 25 -69 9z"/>
<path d="M1248 4420 c-244 -44 -450 -209 -546 -437 -76 -179 -69 -408 17 -586
157 -323 541 -484 876 -369 118 41 187 84 281 177 67 66 89 97 127 175 62 127
80 201 80 330 0 125 -17 202 -72 315 -90 185 -259 327 -456 380 -71 19 -241
28 -307 15z"/>
<path d="M190 3760 c-11 -11 -20 -33 -20 -50 0 -17 9 -39 20 -50 18 -18 33
-20 155 -20 122 0 137 2 155 20 27 27 26 71 -3 98 -21 20 -34 22 -155 22 -119
0 -134 -2 -152 -20z"/>
<path d="M2235 3755 c-14 -13 -25 -33 -25 -45 0 -11 11 -32 25 -45 23 -24 29
-25 155 -25 126 0 132 1 155 25 14 13 25 34 25 45 0 12 -11 32 -25 45 -23 24
-29 25 -155 25 -126 0 -132 -1 -155 -25z"/>
<path d="M623 3067 c-71 -72 -79 -102 -38 -142 38 -39 61 -32 137 43 74 75 85
105 48 142 -38 38 -76 27 -147 -43z"/>
<path d="M1968 3113 c-39 -46 -28 -80 49 -154 55 -54 83 -65 115 -48 31 16 38
28 38 64 0 44 -112 155 -156 155 -17 0 -38 -8 -46 -17z"/>
<path d="M1317 2842 c-14 -15 -17 -42 -17 -155 0 -124 2 -139 20 -157 27 -27
66 -25 95 5 24 23 25 30 25 145 0 116 -8 155 -34 172 -21 14 -73 8 -89 -10z"/>
<path d="M3592 2526 c-174 -70 -340 -194 -458 -341 -83 -104 -177 -289 -211
-420 -25 -91 -27 -116 -27 -285 0 -169 2 -194 27 -283 107 -395 415 -704 807
-808 324 -86 695 -13 958 187 57 43 144 125 139 130 -2 3 -37 -3 -78 -11 -93
-20 -299 -23 -399 -6 -447 78 -800 410 -912 858 -32 128 -32 380 -1 505 45
175 128 346 224 461 22 26 34 47 27 47 -7 0 -50 -15 -96 -34z"/>
<path d="M4375 2385 c-21 -20 -25 -34 -25 -85 l0 -60 -55 0 c-102 0 -155 -44
-124 -103 18 -33 28 -37 107 -37 l72 0 0 -54 c0 -100 36 -142 100 -116 33 14
39 28 42 110 l3 55 70 3 c81 3 105 19 105 67 0 49 -29 69 -111 73 l-69 4 0 64
c0 51 -4 68 -20 84 -27 27 -66 25 -95 -5z"/>
<path d="M3960 1770 c-14 -14 -20 -33 -20 -65 l0 -45 -48 0 c-62 0 -92 -21
-92 -63 0 -18 4 -37 8 -43 13 -20 50 -34 91 -34 l41 0 0 -43 c0 -33 6 -49 23
-65 51 -48 117 -10 117 66 l0 42 44 0 c56 0 89 25 89 68 0 49 -27 72 -85 72
l-48 0 0 45 c0 54 -25 85 -70 85 -17 0 -39 -9 -50 -20z"/>
<path d="M4702 1600 c-16 -15 -22 -32 -22 -64 l0 -44 -56 -4 c-59 -5 -79 -18
-89 -58 -4 -18 0 -34 15 -53 19 -23 29 -27 76 -27 l54 0 0 -48 c0 -35 5 -54
18 -65 19 -17 68 -22 88 -9 19 13 34 50 34 86 l0 36 48 0 c57 0 82 20 82 68 0
41 -39 72 -91 72 -39 0 -39 0 -39 40 0 74 -69 115 -118 70z"/>
</g>
</svg>
