<?xml version="1.0" standalone="no"?>
<!DOCTYPE svg PUBLIC "-//W3C//DTD SVG 20010904//EN"
 "http://www.w3.org/TR/2001/REC-SVG-20010904/DTD/svg10.dtd">
<svg version="1.0" xmlns="http://www.w3.org/2000/svg"
 width="512.000000pt" height="512.000000pt" viewBox="0 0 512.000000 512.000000"
 preserveAspectRatio="xMidYMid meet">

<g transform="translate(0.000000,512.000000) scale(0.100000,-0.100000)"
fill="#000000" stroke="none">
<path d="M3986 5069 c-284 -37 -608 -187 -765 -354 -94 -101 -97 -111 -152
-503 l-49 -347 -322 -322 -323 -323 -288 288 c-198 198 -285 292 -281 302 3 8
13 50 22 92 14 65 14 89 4 160 -15 104 -71 224 -134 285 -43 42 -981 658
-1029 676 -53 20 -77 3 -306 -226 -218 -217 -223 -223 -223 -263 0 -37 33 -91
326 -540 179 -274 333 -507 342 -517 28 -32 126 -91 192 -116 55 -21 82 -25
175 -24 71 0 126 5 156 15 l47 15 286 -286 286 -286 -357 -356 -358 -355 -345
-48 c-388 -54 -397 -57 -498 -151 -147 -136 -285 -414 -339 -682 -26 -129 -23
-371 5 -476 29 -108 69 -193 104 -222 31 -26 76 -32 108 -15 10 5 60 79 111
164 128 213 235 363 287 399 86 62 201 47 337 -44 121 -81 178 -172 178 -285
-1 -62 -1 -63 -130 -281 -155 -260 -163 -275 -163 -307 0 -14 13 -40 29 -58
l29 -33 138 -3 c75 -2 152 -1 170 3 33 6 239 156 444 324 136 112 262 237 282
281 13 29 17 92 21 354 l5 319 349 349 c191 191 352 348 357 348 5 0 68 -58
140 -130 l131 -129 -128 -129 c-119 -121 -127 -131 -127 -168 0 -38 11 -50
622 -660 566 -564 629 -624 693 -656 122 -63 204 -83 335 -82 133 1 229 27
340 91 81 47 243 207 289 286 76 130 111 292 92 431 -20 141 -62 238 -152 351
-85 107 -1191 1203 -1221 1210 -52 13 -81 -5 -203 -126 l-121 -119 -132 133
-132 132 322 322 323 321 328 7 327 7 44 30 c74 48 227 224 455 521 l121 159
0 158 c0 98 -4 169 -11 184 -17 36 -75 62 -111 48 -15 -5 -132 -72 -260 -148
l-233 -139 -65 0 c-88 0 -160 36 -233 115 -63 67 -123 179 -133 246 -20 133
56 209 442 442 176 107 195 132 159 202 -27 53 -168 112 -325 135 -104 16
-198 17 -304 4z m274 -197 l45 -7 -50 -29 c-108 -63 -262 -174 -312 -224 -97
-99 -142 -230 -122 -354 36 -224 219 -446 418 -509 77 -24 207 -28 267 -9 21
7 110 55 196 107 86 51 159 93 162 93 3 0 6 -11 6 -24 0 -46 -449 -601 -493
-610 -12 -3 -152 -7 -312 -11 -159 -3 -310 -10 -334 -14 -40 -8 -65 -30 -290
-252 -135 -134 -290 -287 -344 -339 l-97 -95 -82 82 -82 82 337 344 c264 270
337 351 337 371 0 39 -21 76 -51 92 -65 33 -59 38 -424 -326 l-340 -340 -90
90 -90 90 346 348 346 347 47 340 c26 187 52 356 57 377 35 137 390 335 675
377 72 10 213 12 274 3z m-3167 -354 c238 -155 445 -293 460 -307 15 -14 40
-50 54 -81 37 -75 39 -200 5 -274 -34 -74 -220 -260 -297 -297 -106 -51 -258
-34 -343 38 -18 16 -162 228 -322 473 l-290 445 143 143 c78 78 145 142 150
142 5 0 203 -127 440 -282z m1387 -1683 l785 -785 -75 -75 -75 -75 -782 782
c-431 431 -783 787 -783 793 0 10 130 145 140 145 3 0 358 -353 790 -785z
m-303 -267 c46 -46 83 -87 83 -93 0 -5 -164 -174 -365 -375 -363 -363 -365
-365 -365 -407 0 -53 42 -93 98 -93 35 0 55 19 402 365 201 201 370 365 375
365 6 0 46 -36 90 -80 l80 -80 -367 -368 c-201 -202 -371 -377 -377 -389 -13
-26 -31 -337 -31 -545 l0 -146 -75 -70 c-77 -72 -296 -250 -437 -356 -55 -41
-84 -57 -102 -54 -24 3 -21 8 71 163 53 88 102 182 110 210 27 100 12 216 -40
325 -40 83 -156 202 -252 258 -114 67 -175 85 -290 86 -94 1 -104 -1 -168 -33
-40 -19 -92 -56 -126 -90 -53 -52 -241 -319 -241 -342 0 -6 -4 -8 -8 -5 -15 9
-22 168 -12 261 26 223 136 491 258 625 85 95 77 92 452 145 184 25 351 50
370 55 28 8 114 89 405 380 203 203 372 370 375 370 2 0 42 -37 87 -82z m2089
-930 c415 -417 567 -576 587 -614 77 -148 72 -337 -13 -478 -43 -72 -173 -197
-237 -229 -148 -75 -333 -76 -460 -1 -80 47 -159 122 -667 638 l-510 517 365
365 c200 200 366 364 369 364 3 0 258 -253 566 -562z"/>
<path d="M3540 1689 c-60 -24 -84 -83 -57 -135 9 -16 211 -224 449 -461 439
-438 440 -439 503 -434 34 3 75 57 75 98 0 36 -18 56 -437 476 -370 371 -480
472 -505 466 -2 0 -14 -5 -28 -10z"/>
</g>
</svg>
